<svg xmlns="http://www.w3.org/2000/svg" xmlns:xlink="http://www.w3.org/1999/xlink" width="2245" zoomAndPan="magnify" viewBox="0 0 1683.75 1190.250009" height="1587" preserveAspectRatio="xMidYMid meet" version="1.0"><defs><g/><clipPath id="44ff3257ca"><path d="M 0.40625 430 L 371 430 L 371 789 L 0.40625 789 Z M 0.40625 430 " clip-rule="nonzero"/></clipPath></defs><g clip-path="url(#44ff3257ca)"><g fill="#ed1c24" fill-opacity="1"><g transform="translate(27.608671, 788.761444)"><g><path d="M 275.25 0 L 194.203125 0 L 152.078125 -132.96875 L 55.09375 0 L -28.65625 0 L 112.40625 -187.09375 L 54.125 -358.03125 L 132.484375 -358.03125 L 169.953125 -231.171875 L 258.84375 -358.03125 L 343.09375 -358.03125 L 209.625 -180.484375 Z M 275.25 0 "/></g></g></g></g><g fill="#53565b" fill-opacity="1"><g transform="translate(331.512907, 788.761444)"><g><path d="M 199.09375 -278.921875 C 222.925781 -278.921875 241.738281 -270.144531 255.53125 -252.59375 C 269.332031 -235.050781 276.234375 -210.523438 276.234375 -179.015625 C 276.234375 -147.828125 270.640625 -117.828125 259.453125 -89.015625 C 248.273438 -60.203125 232.972656 -37.347656 213.546875 -20.453125 C 194.117188 -3.554688 172.726562 4.890625 149.375 4.890625 C 135.832031 4.890625 124.160156 1.875 114.359375 -4.15625 C 104.566406 -10.195312 95.507812 -20.484375 87.1875 -35.015625 L 85.21875 -35.015625 C 83.257812 -9.054688 79.75 15.019531 74.6875 37.21875 L 57.0625 120.484375 L -16.65625 120.484375 L 67.09375 -273.78125 L 123.421875 -273.78125 L 119.265625 -232.15625 L 121.46875 -232.15625 C 144 -263.332031 169.875 -278.921875 199.09375 -278.921875 Z M 169.46875 -219.171875 C 158.363281 -219.171875 147.625 -213.660156 137.25 -202.640625 C 126.882812 -191.617188 118.5625 -176.925781 112.28125 -158.5625 C 106 -140.195312 102.859375 -119.910156 102.859375 -97.703125 C 102.859375 -84.648438 105.875 -74.203125 111.90625 -66.359375 C 117.945312 -58.523438 126.273438 -54.609375 136.890625 -54.609375 C 147.828125 -54.609375 158.273438 -60.238281 168.234375 -71.5 C 178.191406 -82.769531 186.234375 -98.238281 192.359375 -117.90625 C 198.484375 -137.582031 201.546875 -156.972656 201.546875 -176.078125 C 201.546875 -204.804688 190.851562 -219.171875 169.46875 -219.171875 Z M 169.46875 -219.171875 "/></g></g></g><g fill="#53565b" fill-opacity="1"><g transform="translate(630.026549, 788.761444)"><g><path d="M 206.203125 -278.921875 C 215.828125 -278.921875 223.660156 -278.023438 229.703125 -276.234375 L 213.546875 -205.21875 C 206.191406 -207.832031 198.023438 -209.140625 189.046875 -209.140625 C 170.109375 -209.140625 153.5 -201.664062 139.21875 -186.71875 C 124.9375 -171.78125 114.773438 -150.351562 108.734375 -122.4375 L 82.765625 0 L 9.0625 0 L 67.09375 -273.78125 L 123.421875 -273.78125 L 118.28125 -223.09375 L 119.75 -223.09375 C 143.75 -260.3125 172.566406 -278.921875 206.203125 -278.921875 Z M 206.203125 -278.921875 "/></g></g></g><g fill="#53565b" fill-opacity="1"><g transform="translate(841.116589, 788.761444)"><g><path d="M 170.4375 -225.78125 C 156.070312 -225.78125 142.519531 -219.25 129.78125 -206.1875 C 117.050781 -193.132812 108.726562 -177.21875 104.8125 -158.4375 L 115.828125 -158.4375 C 141.140625 -158.4375 160.851562 -162.394531 174.96875 -170.3125 C 189.09375 -178.238281 196.15625 -188.972656 196.15625 -202.515625 C 196.15625 -218.023438 187.582031 -225.78125 170.4375 -225.78125 Z M 130.28125 4.890625 C 96 4.890625 69.390625 -4.332031 50.453125 -22.78125 C 31.515625 -41.226562 22.046875 -67.265625 22.046875 -100.890625 C 22.046875 -134.679688 28.78125 -165.492188 42.25 -193.328125 C 55.71875 -221.171875 73.957031 -242.394531 96.96875 -257 C 119.988281 -271.613281 146.03125 -278.921875 175.09375 -278.921875 C 203.988281 -278.921875 226.515625 -272.269531 242.671875 -258.96875 C 258.835938 -245.664062 266.921875 -227.421875 266.921875 -204.234375 C 266.921875 -173.703125 253.289062 -150.148438 226.03125 -133.578125 C 198.769531 -117.015625 159.832031 -108.734375 109.21875 -108.734375 L 96.734375 -108.734375 L 96.234375 -103.59375 L 96.234375 -98.6875 C 96.234375 -83.832031 100.4375 -72.117188 108.84375 -63.546875 C 117.257812 -54.972656 129.300781 -50.6875 144.96875 -50.6875 C 159.175781 -50.6875 172.070312 -52.238281 183.65625 -55.34375 C 195.25 -58.445312 209.289062 -63.914062 225.78125 -71.75 L 225.78125 -16.15625 C 197.707031 -2.125 165.875 4.890625 130.28125 4.890625 Z M 130.28125 4.890625 "/></g></g></g><g fill="#53565b" fill-opacity="1"><g transform="translate(1120.529275, 788.761444)"><g><path d="M 203.015625 -90.359375 C 203.015625 -59.671875 192.847656 -36.125 172.515625 -19.71875 C 152.191406 -3.3125 123.910156 4.890625 87.671875 4.890625 C 70.203125 4.890625 54.976562 3.664062 42 1.21875 C 29.019531 -1.226562 16.894531 -5.304688 5.625 -11.015625 L 5.625 -71.75 C 31.257812 -57.0625 57.300781 -49.71875 83.75 -49.71875 C 96.8125 -49.71875 107.503906 -52.367188 115.828125 -57.671875 C 124.160156 -62.972656 128.328125 -70.195312 128.328125 -79.34375 C 128.328125 -86.363281 125.304688 -92.648438 119.265625 -98.203125 C 113.222656 -103.753906 102.53125 -110.773438 87.1875 -119.265625 C 67.425781 -130.359375 53.628906 -141.414062 45.796875 -152.4375 C 37.960938 -163.457031 34.046875 -176.476562 34.046875 -191.5 C 34.046875 -219.257812 43.0625 -240.769531 61.09375 -256.03125 C 79.132812 -271.289062 104.890625 -278.921875 138.359375 -278.921875 C 171.171875 -278.921875 200.800781 -271.164062 227.25 -255.65625 L 203.015625 -203.015625 C 180.160156 -216.722656 159.097656 -223.578125 139.828125 -223.578125 C 130.523438 -223.578125 123.015625 -221.492188 117.296875 -217.328125 C 111.585938 -213.171875 108.734375 -207.582031 108.734375 -200.5625 C 108.734375 -194.195312 111.34375 -188.601562 116.5625 -183.78125 C 121.789062 -178.96875 131.585938 -172.890625 145.953125 -165.546875 C 166.035156 -155.253906 180.566406 -144.066406 189.546875 -131.984375 C 198.523438 -119.910156 203.015625 -106.035156 203.015625 -90.359375 Z M 203.015625 -90.359375 "/></g></g></g><g fill="#53565b" fill-opacity="1"><g transform="translate(1357.821908, 788.761444)"><g><path d="M 99.421875 4.890625 C 75.421875 4.890625 56.523438 -3.800781 42.734375 -21.1875 C 28.941406 -38.570312 22.046875 -62.9375 22.046875 -94.28125 C 22.046875 -126.601562 27.921875 -157.414062 39.671875 -186.71875 C 51.421875 -216.03125 66.847656 -238.722656 85.953125 -254.796875 C 105.054688 -270.878906 126.035156 -278.921875 148.890625 -278.921875 C 164.722656 -278.921875 178.394531 -275.492188 189.90625 -268.640625 C 201.414062 -261.785156 210.351562 -251.828125 216.71875 -238.765625 L 218.6875 -238.765625 L 232.640625 -273.78125 L 289.453125 -273.78125 L 231.171875 0 L 175.09375 0 L 178.53125 -35.515625 L 177.546875 -35.515625 C 155.671875 -8.578125 129.628906 4.890625 99.421875 4.890625 Z M 128.328125 -54.609375 C 139.585938 -54.609375 150.441406 -60.078125 160.890625 -71.015625 C 171.335938 -81.953125 179.742188 -96.765625 186.109375 -115.453125 C 192.484375 -134.148438 195.671875 -155.335938 195.671875 -179.015625 C 195.671875 -190.609375 192.523438 -200.195312 186.234375 -207.78125 C 179.953125 -215.375 171.664062 -219.171875 161.375 -219.171875 C 150.28125 -219.171875 139.710938 -213.289062 129.671875 -201.53125 C 119.628906 -189.78125 111.628906 -174.273438 105.671875 -155.015625 C 99.710938 -135.753906 96.734375 -116.648438 96.734375 -97.703125 C 96.734375 -83.335938 99.46875 -72.5625 104.9375 -65.375 C 110.40625 -58.195312 118.203125 -54.609375 128.328125 -54.609375 Z M 128.328125 -54.609375 "/></g></g></g></svg>